<svg fill="#ffffff" xmlns="http://www.w3.org/2000/svg"  viewBox="0 0 32 32" width="128px" height="128px"><path d="M 16.048828 1.6269531 L 13.349609 6.3652344 C 12.824609 6.5122344 12.295094 6.7145625 11.746094 6.9765625 L 7.7421875 7.0097656 L 7.9511719 10.097656 C 7.1821719 11.137656 6.6343594 12.275187 6.3183594 13.492188 L 1.2929688 16.285156 L 6.5546875 19.28125 C 6.8856875 20.22925 7.3624687 21.125125 7.9804688 21.953125 L 8.0078125 25.269531 L 11.683594 25.021484 C 12.277594 25.306484 12.899109 25.532359 13.537109 25.693359 L 15.951172 30.039062 L 18.421875 25.703125 C 19.072875 25.541125 19.704594 25.312438 20.308594 25.023438 L 24.269531 24.992188 L 24.060547 21.892578 C 24.653547 21.086578 25.114547 20.221547 25.435547 19.310547 L 30.707031 16.380859 L 25.689453 13.525391 C 25.368453 12.269391 24.800187 11.094437 23.992188 10.023438 L 23.964844 6.7304688 L 20.261719 6.9804688 C 19.724719 6.7234688 19.204547 6.5249531 18.685547 6.3769531 L 16.048828 1.6269531 z M 16.025391 5.7070312 L 17.361328 8.1113281 L 17.796875 8.2128906 C 18.382875 8.3478906 18.974422 8.5676719 19.607422 8.8886719 L 19.853516 9.0136719 L 21.982422 8.8691406 L 21.998047 10.728516 L 22.216797 10.998047 C 23.038797 12.018047 23.584937 13.155906 23.835938 14.378906 L 23.925781 14.820312 L 26.626953 16.359375 L 23.769531 17.947266 L 23.652344 18.333984 C 23.368344 19.269984 22.898859 20.153891 22.255859 20.962891 L 22.015625 21.267578 L 22.132812 23.009766 L 19.828125 23.027344 L 19.619141 23.134766 C 18.973141 23.463766 18.286172 23.70175 17.576172 23.84375 L 17.128906 23.931641 L 15.974609 25.960938 L 14.847656 23.931641 L 14.396484 23.839844 C 13.683484 23.693844 12.992703 23.450187 12.345703 23.117188 L 12.097656 22.988281 L 9.9902344 23.132812 L 9.9746094 21.255859 L 9.7597656 20.984375 C 9.1087656 20.168375 8.6317969 19.271453 8.3417969 18.314453 L 8.2265625 17.931641 L 5.3730469 16.306641 L 8.0761719 14.804688 L 8.171875 14.355469 C 8.422875 13.151469 8.9568125 12.032297 9.7578125 11.029297 L 10 10.726562 L 9.8828125 8.9902344 L 12.222656 8.9726562 L 12.429688 8.8691406 C 13.061687 8.5531406 13.651516 8.3350781 14.228516 8.2050781 L 14.658203 8.1074219 L 16.025391 5.7070312 z M 17.154297 9.9433594 C 17.09051 9.9451484 17.037875 9.962125 17 10 C 16 11 16 10 16 10 L 14 10 L 13 11 L 12 11 L 11 12 L 11.25 15.25 L 13.125 17.625 C 13.125 17.625 16.25 19.5 17.125 16.75 C 16.875 15.25 16.5 14.625 16.5 14.625 C 16.5 14.625 15 14.25 15 14.625 L 15 16 C 15 16.442 14 16 14 16 C 14 16 13 15 13.875 13.375 C 16.125 11.625 17.5 12.25 17.5 12.25 C 17.5 12.25 17.663 12.365 18 13 C 18.261 13.491 18.895 13.452 19 14 C 19.056 14.295 19.119 16.525 19 17 C 18.614 17.618 18.674 18.522 18 19 C 16 20 14.814 19.568 13 20 L 12 21 L 16 22 C 16 22 17 21 19 21 C 19.394 20.705 21.669 18.524 22 18 C 22 16 21.889 16.072 22 15 C 21.395 12.875 20 12 19.125 10.875 C 18.607 10.702625 17.600807 9.9308359 17.154297 9.9433594 z"/></svg>